inDegrees=no
num_controls=7
num_derivatives=13
num_iterations=208
num_multipliers=7
num_parameters=0
num_slacks=7
num_states=26
objective=5.512255
objective_accelerations=0.469453
objective_balance=0.015600
objective_effort=0.401535
objective_height=4.525626
objective_ligament=0.100041
solver_duration=1725.733332
status=Solve_Succeeded
success=true
DataType=double
version=3
OpenSimVersion=4.4-2022-07-23-0e9fedc
endheader
time	/jointset/ground_pelvis/pelvis_tilt/value	/jointset/ground_pelvis/pelvis_tx/value	/jointset/ground_pelvis/pelvis_ty/value	/jointset/hip_r/hip_flexion_r/value	/jointset/hip_r/hip_adduction_r/value	/jointset/hip_r/hip_rotation_r/value	/jointset/back/lumbar_extension/value	/jointset/patellofemoral_r/patellar_flexion_r/value	/jointset/knee_r/knee_flexion_r/value	/jointset/knee_r/knee_adduction_r/value	/jointset/knee_r/knee_rotation_r/value	/jointset/ankle_r/ankle_angle_r/value	/jointset/subtalar_r/subtalar_angle_r/value	/jointset/ground_pelvis/pelvis_tilt/speed	/jointset/ground_pelvis/pelvis_tx/speed	/jointset/ground_pelvis/pelvis_ty/speed	/jointset/hip_r/hip_flexion_r/speed	/jointset/hip_r/hip_adduction_r/speed	/jointset/hip_r/hip_rotation_r/speed	/jointset/back/lumbar_extension/speed	/jointset/patellofemoral_r/patellar_flexion_r/speed	/jointset/knee_r/knee_flexion_r/speed	/jointset/knee_r/knee_adduction_r/speed	/jointset/knee_r/knee_rotation_r/speed	/jointset/ankle_r/ankle_angle_r/speed	/jointset/subtalar_r/subtalar_angle_r/speed	/forceset/tau_hip_flexion_r	/forceset/tau_hip_adduction_r	/forceset/tau_hip_rotation_r	/forceset/tau_knee_flexion_r	/forceset/tau_ankle_angle_r	/forceset/tau_subtalar_angle_r	/forceset/tau_lumbar_extension	lambda_cid13_p0	lambda_cid14_p0	lambda_cid14_p1	lambda_cid14_p2	lambda_cid14_p3	lambda_cid14_p4	lambda_cid14_p5	/jointset/ground_pelvis/pelvis_tilt/accel	/jointset/ground_pelvis/pelvis_tx/accel	/jointset/ground_pelvis/pelvis_ty/accel	/jointset/hip_r/hip_flexion_r/accel	/jointset/hip_r/hip_adduction_r/accel	/jointset/hip_r/hip_rotation_r/accel	/jointset/back/lumbar_extension/accel	/jointset/patellofemoral_r/patellar_flexion_r/accel	/jointset/knee_r/knee_flexion_r/accel	/jointset/knee_r/knee_adduction_r/accel	/jointset/knee_r/knee_rotation_r/accel	/jointset/ankle_r/ankle_angle_r/accel	/jointset/subtalar_r/subtalar_angle_r/accel	gamma_cid13_p0	gamma_cid14_p0	gamma_cid14_p1	gamma_cid14_p2	gamma_cid14_p3	gamma_cid14_p4	gamma_cid14_p5
1.5	-0.04113959750544813	0.05721149877141499	0.8404111251777381	0.6810714808025639	-0.2507616778119702	-0.07807237586164741	-0.6112121362331416	0.8661875448801163	0.8661875448801144	0.06504747769935026	0.1743235873047832	0.2996003824694812	0.09669823715712285	0.3536397554112904	0.184622335099023	0.4034490642358436	-1.670762681975052	0.05069973607774226	-0.4663251501324206	0.8014186721041389	-1.763895888542576	-1.763895888542574	0.08355085332304815	0.002813316240552737	-0.5172161285924969	-0.09365128658479174	-0.1323729271459814	-0.004616203575696658	0.03229415619905836	-0.2945549664776421	-0.01110606347604841	-0.01105626153758622	0.1951952893174746	-12.63214243621142	-46.36286794090675	-10.95380442440639	-0.07706947959309322	0.8751918518738385	-636.7886411223468	63.66268693056008	-0.0325874544790992	0.3907087816967278	-0.3891556164695932	-0.7481089989114488	0.1347408107666723	-0.03148693905476643	1.528540653776645	-1.258491023332831	-1.258491023332841	0.6283507414032418	-0.02587967898937745	-0.5403774801490753	0.07163061245611888	8.023991271676682e-08	2.526211240059375e-08	-8.458490637425566e-07	3.91985891342528e-07	7.575596951452312e-08	1.201860433175959e-07	-6.246128733645002e-07
1.51	-0.03760513422392859	0.05907704148517368	0.8444253321584869	0.6643283585485341	-0.2502485447499802	-0.08273697399684612	-0.6031228272607577	0.8484879908127698	0.8484879908127694	0.0659153558436949	0.1743513101750772	0.2944017552040449	0.09576454091606167	0.3532054307485459	0.1884617678771104	0.3993081637890023	-1.677634354471206	0.05191085780962364	-0.4665413824426464	0.8163286193816724	-1.775761573729406	-1.775761573729399	0.09004514868903492	0.002723292316315548	-0.522432455556624	-0.0930890346423489	-0.1261179967076827	-0.005675164041183959	0.03154479099680772	-0.291218777299357	-0.008715675950916536	-0.01177499326337831	0.1893339327088324	-13.55369468140575	-45.39777586531096	-11.01677761432142	-0.1586273386328576	0.6993716472759468	-632.968861453526	63.2138294192486	-0.05597199300813346	0.3769082894826267	-0.4391545478791283	-0.6225795341089885	0.1119048920963043	-0.00860186551137616	1.455046316114081	-1.112623098449842	-1.112623098449164	0.6629151684084353	-0.001687747819308519	-0.5007065220303814	0.0482858599597668	8.837008585177261e-08	3.492640434114429e-08	-8.503601731094162e-07	4.581501640298954e-07	7.106602429013912e-08	1.330311104901809e-07	-6.409596795452141e-07
1.52	-0.03407643759320311	0.06098024807943683	0.8483956106769499	0.6475233429377153	-0.2497237790631319	-0.08740211655284834	-0.5948878539053239	0.830677376727138	0.8306773767271377	0.06684876618854846	0.1743779080063889	0.2891532754254703	0.09483641986938919	0.3524864252523601	0.1921551111999155	0.3946633717786545	-1.683141353333026	0.05302626104940248	-0.4664340342930672	0.8305515487141002	-1.786107892199907	-1.786107892199895	0.09665729342350315	0.002588308444942118	-0.5271866312201861	-0.09253624770705024	-0.1198630662693795	-0.006734124506671905	0.03079542579452681	-0.2878825881210713	-0.006325288425784708	-0.01249372498917083	0.1834725761001945	-14.47145670859954	-44.4356086797629	-11.07698259214732	-0.2443741075437929	0.5176092760371145	-629.1945131408673	62.80693400032137	-0.08952362116734312	0.3614908906402811	-0.489933929170882	-0.4751742720447134	0.1155971123461681	0.03322915290623232	1.39113706475549	-0.9546176800669731	-0.9546176800669673	0.6519206150995304	-0.03487166841662422	-0.4479472200361347	0.0697376110272782	9.599191066747763e-08	4.467518378170128e-08	-8.565860856823125e-07	5.217400963824526e-07	6.616739797376881e-08	1.483165857835183e-07	-6.604827704206773e-07
1.53	-0.03055632625161304	0.06291961249818209	0.85231698109791	0.6306700585521932	-0.2491884027787691	-0.09206456700271846	-0.5865142567764435	0.8127709367270598	0.8127709367270599	0.0678489703410758	0.1744029497659518	0.2838595685568732	0.09391369305050006	0.3514872456683087	0.1956884324229672	0.3895314286215714	-1.687280566594085	0.05403109167472016	-0.466013636600778	0.844039992923742	-1.79491614895732	-1.794916148957311	0.1033922634817027	0.00241792492947812	-0.5314736323600338	-0.09201114494872345	-0.1135397148299809	-0.007890367791404267	0.03003797439058454	-0.2847169422573592	-0.003824314418516791	-0.01327397079085495	0.1775572335913289	-15.38326224771011	-43.45365259329161	-11.1640512363522	-0.3217105124191939	0.3477822588481924	-625.5809793800838	62.39315000905719	-0.1123996634353272	0.3448633803396577	-0.5366819244951433	-0.3480442952196612	0.09026453941176925	0.05294947013640005	1.308515478353025	-0.8043572177987502	-0.804357217799228	0.6854862864957922	-0.008344314600501831	-0.4068855725250132	0.0435284325339041	1.030736153939256e-07	5.451373119101513e-08	-8.646339766616228e-07	5.825947921292742e-07	6.104704799716301e-08	1.66194994705155e-07	-6.833806637843115e-07
1.54	-0.02704766361314521	0.06489343225759828	0.8561846606041956	0.6137824321456445	-0.2486435104877958	-0.09672151259711641	-0.5780096117296099	0.7947843286505648	0.7947843286505638	0.0689167644112562	0.1744262431660576	0.2785254298745644	0.09299614362405391	0.3501966846278038	0.1990461793341031	0.3839251888437653	-1.69000975753847	0.0549294623715254	-0.4653330631986424	0.8567611323047629	-1.802141507483545	-1.80214150748354	0.1101752769525271	0.002238636554446019	-0.5352729939625187	-0.09150076921845569	-0.1072163633905795	-0.009046611076135445	0.0292805229866089	-0.2815512963936466	-0.00132334041124825	-0.01405421659253645	0.1716418910824655	-16.28728899915736	-42.47383829452067	-11.24818478532864	-0.4032964448269853	0.1705080284832659	-622.0019589086562	62.02375949571721	-0.1477999124580301	0.3263760282571069	-0.5847932533154945	-0.193169808709949	0.09430512664368412	0.08526429487552589	1.237676099031329	-0.6380380338294978	-0.6380380338294975	0.6615292976245098	-0.03665264033024244	-0.3504193125635925	0.06679220541547015	1.101934749645074e-07	6.424633140240775e-08	-8.781491390068089e-07	6.426081707873593e-07	5.642324770533294e-08	1.856993849140504e-07	-7.109264101614863e-07
1.55	-0.02355332100563388	0.06689990579385058	0.8599939773090607	0.5968745204136947	-0.2480902177805172	-0.1013702691813988	-0.569381777176543	0.7767334064224951	0.7767334064224932	0.07005274310464449	0.1744476390537789	0.2731557349820579	0.09208355894794663	0.3486220923629823	0.2022142207873717	0.3778645762088621	-1.691329426308545	0.0557110031617086	-0.4643751605809083	0.8686647823486047	-1.807768083346698	-1.807768083346696	0.1170213359619536	0.002034588048087543	-0.5385802754921466	-0.09101661331600165	-0.100841533634085	-0.0102911246591439	0.02851996226207314	-0.2785942591352555	0.001295809709584398	-0.01490979251075872	0.1656969333205582	-17.18207607084086	-41.47657226875707	-11.36654382803025	-0.4742105060931642	0.006341011850958801	-618.6446996222928	61.64051468885209	-0.1697442428321662	0.3068821585926289	-0.6276878658849454	-0.06488200915331289	0.06740299936894566	0.1076762972941557	1.145560063081269	-0.4837634124137679	-0.4837634124143711	0.6961669093882092	-0.01305573247566879	-0.3080001395681586	0.03910399698699438	1.173572955511563e-07	7.385686201619553e-08	-8.979635487952865e-07	7.016522058432047e-07	5.237155900683136e-08	2.070771883452222e-07	-7.438272915325229e-07
1.56	-0.02007621539263786	0.06893703253558177	0.8637404893681151	0.5799607086744456	-0.2475296447765045	-0.1060081221290888	-0.5606391360018336	0.7586344592258211	0.7586344592258208	0.071257186929485	0.1744668395011013	0.2677555437609738	0.09117579117372923	0.3467492857246412	0.2051768204298789	0.3713642596816721	-1.691189758998501	0.05638552171842199	-0.4631523358803019	0.8797224566332725	-1.811746501204076	-1.811746501204079	0.1238683032428394	0.001799548474248101	-0.5413722596780053	-0.09053738884048247	-0.09446670387758578	-0.01153563824214607	0.02775940153754438	-0.2756372218768633	0.00391495983041911	-0.0157653684289712	0.1597519755586536	-18.0665418755823	-40.48030413752603	-11.48163202249354	-0.5495824999100538	-0.1677272708658377	-615.3061673177618	61.30375437302181	-0.2074427871619194	0.2852876661048058	-0.6727340317728715	0.0986974073139858	0.07290067994972557	0.1382487114499737	1.068480947196568	-0.3084064326746219	-0.3084064326746243	0.6617109519163655	-0.0428508538264321	-0.2473598438097407	0.065805920028499	1.242581509796569e-07	8.306909242391649e-08	-9.223467737495154e-07	7.578676483451418e-07	4.887585664810852e-08	2.300723787994292e-07	-7.805345602040982e-07
